<svg width="167" height="187" viewBox="0 0 167 187" fill="none" xmlns="http://www.w3.org/2000/svg">
<path d="M50.1273 128.354L61.071 134.821L49.6299 141.288L39.1836 134.821L50.1273 128.354Z" fill="#510A1E"/>
<path d="M50.2061 83.087V128.696L0.382812 157.456V111.847L50.2061 83.087Z" fill="#A81E45"/>
<path d="M49.8232 140.747V186.356L0 157.596V111.987L49.8232 140.747Z" fill="#D02555"/>
<path d="M99.9521 111.847V157.456L50.1289 128.696V83.087L99.9521 111.847Z" fill="#D02555"/>
<path d="M99.6436 111.987V157.596L49.8203 186.356V140.747L99.6436 111.987Z" fill="#A81E45"/>
<path d="M49.8232 140.747V153.192L0 124.421V111.987L49.8232 140.747Z" fill="#C21B4A"/>
<path d="M99.6436 111.987V124.421L75.7081 138.241L62.4979 145.872L49.8203 153.192V140.747L99.6436 111.987Z" fill="#8F1437"/>
<path d="M75.7141 138.241V171.412L62.5039 179.221V145.872L75.7141 138.241Z" fill="#D19A19"/>
<path d="M75.7141 134.492V138.241L62.5039 145.872V142.123L75.7141 134.492Z" fill="#C78E08"/>
<path d="M10.7266 130.61V163.781L23.9365 171.59V138.241L10.7266 130.61Z" fill="#F5C92C"/>
<path d="M10.7266 126.861V130.61L23.9365 138.241V134.492L10.7266 126.861Z" fill="#E6BD29"/>
<g clip-path="url(#clip0_3333_2303)">
<path d="M92.5229 15.606L64.8373 43.2917L92.5229 70.9774L88.8716 74.6304L42.0391 43.2917L88.8716 11.9547L92.5229 15.606Z" fill="#E0230D"/>
<path d="M88.8735 11.9547L57.5348 43.2917L88.8735 74.6304L77.4305 86.0717L49.7448 58.386L22.0592 86.0717L6.96484 70.9774L34.6505 43.2917L6.96484 15.606L22.0592 0.511719L49.7448 28.1974L77.4305 0.511719L88.8735 11.9547Z" fill="#FF5440"/>
</g>
<path d="M102.298 52.584C103.618 51.028 105.006 49.4506 106.14 47.752C107.037 46.4089 107.711 44.5996 109.183 43.776C109.327 43.6952 109.229 43.4704 109.074 43.5398C107.684 44.1652 107.014 45.5459 106.243 46.7793C105 48.7663 103.292 50.422 102.115 52.4521C102.043 52.577 102.203 52.6957 102.298 52.584Z" fill="#FEFFEB"/>
<path d="M77.6442 73.7636L112.235 19.9435L129.656 20.7751L95.065 74.595L77.6442 73.7636Z" fill="#DB275A"/>
<path d="M77.6469 73.7637L106.959 130.631L124.38 131.462L95.0678 74.594L77.6469 73.7637Z" fill="#A81E45"/>
<path d="M124.378 131.462L95.0662 74.5942L129.657 20.7743L158.97 77.6419L124.378 131.462Z" fill="#E6295E"/>
<path d="M144.903 50.3557C145.463 49.6635 141.09 41.6688 138.793 37.1833C138.462 36.5359 137.72 36.4258 137.72 36.4258L137.91 36.797L103.319 90.6126L110.312 104.171L144.903 50.3557Z" fill="#FFD233"/>
<path d="M103.319 90.6126L85.9021 89.7819L93.0728 103.349L110.312 104.171L103.319 90.6126Z" fill="#D19A19"/>
<path d="M150.621 90.6352C151.113 91.3775 145.999 98.9197 143.286 103.166C142.894 103.779 142.145 103.818 142.145 103.818L142.37 103.467L113.057 46.6035L121.309 33.7718L150.621 90.6352Z" fill="#FFD233"/>
<path d="M113.057 46.6032L95.64 45.7726L104.069 32.9496L121.309 33.7718L113.057 46.6032Z" fill="#F5C92C"/>
<path d="M127.02 53.7426L109.859 52.9241L115.103 63.0979L109.392 71.984L126.149 71.9975L127.02 53.7426Z" fill="#FFEB33"/>
<path d="M149.944 58.5304C152.845 55.2042 162.116 44.5202 158.673 35.6837C157.862 33.5907 156.336 31.597 153.833 29.8342C140.791 20.6399 129.486 33.7033 127.02 53.7398L126.566 63.2566L139.418 63.8695C139.418 63.8695 146.372 62.6464 149.944 58.5304ZM141.27 55.9961C139.622 57.7273 137.241 58.7466 134.94 59.503C135.786 50.8487 139.1 31.6522 151.995 32.5225L152.05 32.5251C153.878 38.4308 147.455 49.4731 141.27 55.9961Z" fill="#FFEB33"/>
<path d="M128.534 61.7965C128.534 61.7965 129.343 27.3789 145.978 28.5275C149.497 28.7732 151.369 30.2727 152.05 32.526L151.995 32.5234C139.1 31.6531 135.786 50.8493 134.94 59.5038C132.278 60.3761 129.721 60.8981 128.534 61.7965Z" fill="#FFC533"/>
<path d="M139.417 63.87L126.565 63.2571L126.112 72.7739C126.659 92.9542 136.67 107.034 150.528 99.1227C153.187 97.6061 154.896 95.7665 155.903 93.7603C160.171 85.2916 151.959 73.7736 149.387 70.1864C146.223 65.7489 139.417 63.87 139.417 63.87ZM149.009 96.2741L148.954 96.2714C136.035 95.9109 134.563 76.4861 134.544 67.7904C136.763 68.7623 139.036 70.0032 140.512 71.8837C146.048 78.9658 151.391 90.5689 149.009 96.2741Z" fill="#FFEB33"/>
<path d="M128.388 64.9002C128.388 64.9002 125.917 99.2386 142.586 99.6783C146.113 99.7686 148.118 98.4541 149.011 96.2758L148.956 96.2732C136.036 95.9126 134.564 76.4879 134.546 67.7921C131.979 66.6705 129.483 65.9075 128.388 64.9002Z" fill="#FFC533"/>
<path d="M153.741 37.8446C154.479 35.8769 153.939 28.9963 151.046 28.7703C150.977 28.7649 150.919 28.865 150.978 28.9151C153.686 31.2291 153.012 34.6718 153.357 37.8263C153.38 38.0353 153.678 38.0122 153.741 37.8446Z" fill="#FEFFEB"/>
<path d="M128.558 61.1097C128.581 59.4016 128.491 57.8357 128.979 56.1593C129.029 55.9879 128.776 55.9051 128.716 56.0731C128.208 57.4819 127.544 59.7568 128.33 61.1601C128.386 61.2611 128.557 61.2342 128.558 61.1097Z" fill="#FEFFEB"/>
<path d="M136.728 97.6751C134.021 96.8597 132.29 93.2634 131.661 90.7414C131.611 90.5432 131.333 90.6138 131.357 90.81C131.669 93.4425 133.713 97.6197 136.697 97.844C136.794 97.8513 136.822 97.7032 136.728 97.6751Z" fill="#FEFFEB"/>
<path d="M147.924 79.7672C147.195 75.0315 142.986 69.3165 138.321 67.8866C138.223 67.8564 138.183 67.9946 138.273 68.0349C143.06 70.1754 145.895 75.1199 147.569 79.8473C147.646 80.0645 147.96 80.004 147.924 79.7672Z" fill="#FEFFEB"/>
<defs>
<clipPath id="clip0_3333_2303">
<rect width="85.56" height="85.56" fill="white" transform="translate(6.96484 0.511719)"/>
</clipPath>
</defs>
</svg>
