<svg width="78" height="56" viewBox="0 0 78 56" fill="none" xmlns="http://www.w3.org/2000/svg">
<g clip-path="url(#clip0_3333_2970)">
<path d="M61.2422 36.2187L63.1232 19.8333H58.1708L51.3398 48.457L75.6343 47.0714L77.6248 39.6428L61.2422 36.2187Z" fill="#FFC008"/>
<path d="M57.8134 39.6428H52.861L50.207 49.5476H72.4928C73.8604 49.5476 75.2661 48.439 75.6324 47.0714H58.2991C56.9315 47.0714 56.12 45.9628 56.4863 44.5952L57.8134 39.6428Z" fill="#FF9700"/>
<path d="M77.2805 36.4453L73.0942 33.4523L68.3274 30.3471L73.0528 24.7856L73.0378 21.6579C73.0327 20.5807 72.2545 19.8333 71.1378 19.8333H63.1244L57.8164 39.6428H77.626L77.9137 38.5686C78.1467 37.6988 77.9063 36.8927 77.2805 36.4453Z" fill="#FBDE08"/>
<path d="M49.351 17.3572H60.0707C60.7544 17.3572 61.1603 17.9116 60.977 18.5953L53.3469 47.0715L17.6194 49.1681C16.9356 49.1681 16.6744 48.8363 16.8576 48.1524L23.6878 22.4825L49.351 17.3572Z" fill="#D00000"/>
<path d="M19.9181 47.0715C19.2342 47.0715 18.8285 46.5171 19.0118 45.8334L20.8204 39.0836C21.0092 38.3792 21.7675 37.9767 22.445 38.2467C24.6944 39.1429 27.1427 39.6431 29.7124 39.6431C40.6528 39.6431 49.522 30.7741 49.522 19.8335C49.522 18.993 49.4525 18.1702 49.3509 17.3573H25.404C24.7201 17.3573 24.0173 17.9115 23.8341 18.5954L15.8721 48.3097C15.6889 48.9935 16.0947 49.5478 16.7784 49.5478H52.6831L53.3466 47.0716H19.9181V47.0715Z" fill="#BC0404"/>
<path d="M69.2192 52.8011C71.5731 50.7411 72.2029 47.6102 70.6258 45.8082C69.0488 44.0062 65.8621 44.2154 63.5082 46.2754C61.1543 48.3355 60.5246 51.4663 62.1016 53.2683C63.6787 55.0703 66.8653 54.8612 69.2192 52.8011Z" fill="#5D5360"/>
<path d="M67.7914 51.1696C68.9683 50.1396 69.2832 48.5742 68.4946 47.6731C67.7061 46.7721 66.1127 46.8767 64.9357 47.9067C63.7588 48.9367 63.4439 50.5022 64.2325 51.4032C65.0211 52.3042 66.6144 52.1997 67.7914 51.1696Z" fill="#DAD8DB"/>
<path d="M30.8208 52.8208C33.1747 50.7607 33.8045 47.6299 32.2274 45.8279C30.6503 44.0259 27.4637 44.235 25.1098 46.2951C22.7559 48.3551 22.1261 51.486 23.7032 53.288C25.2802 55.09 28.4669 54.8808 30.8208 52.8208Z" fill="#5D5360"/>
<path d="M29.3929 51.1893C30.5699 50.1593 30.8847 48.5938 30.0962 47.6928C29.3076 46.7918 27.7143 46.8963 26.5373 47.9264C25.3604 48.9564 25.0455 50.5218 25.8341 51.4229C26.6226 52.3239 28.216 52.2193 29.3929 51.1893Z" fill="#DAD8DB"/>
<path d="M73.0506 24.7856H66.7477L64.5547 27.2618L65.4116 32.6513L73.092 30.9761L73.0506 24.7856Z" fill="#DBEAFF"/>
<path d="M67.5677 30.9761C66.2001 30.9761 65.3886 29.8675 65.755 28.4999L66.7502 24.7856C65.3826 24.7856 63.977 25.8942 63.6106 27.2618L62.6153 30.9761C62.2489 32.3437 63.0605 33.4523 64.428 33.4523H73.0947L73.0828 30.9761H67.5677Z" fill="#C3DDFF"/>
<path d="M29.7162 37.1667C39.2891 37.1667 47.0495 29.4063 47.0495 19.8334C47.0495 10.2604 39.2891 2.5 29.7162 2.5C20.1432 2.5 12.3828 10.2604 12.3828 19.8334C12.3828 29.4063 20.1432 37.1667 29.7162 37.1667Z" fill="#ECEAEC"/>
<path d="M29.7126 34.6904C37.918 34.6904 44.5698 28.0386 44.5698 19.8332C44.5698 11.6279 37.918 4.97607 29.7126 4.97607C21.5073 4.97607 14.8555 11.6279 14.8555 19.8332C14.8555 28.0386 21.5073 34.6904 29.7126 34.6904Z" fill="white"/>
<path d="M29.7147 9.92853C29.0303 9.92853 28.4766 9.37415 28.4766 8.69043V7.45233C28.4766 6.76861 29.0303 6.21423 29.7147 6.21423C30.399 6.21423 30.9528 6.76861 30.9528 7.45233V8.69043C30.9528 9.37415 30.399 9.92853 29.7147 9.92853Z" fill="#C8C5C9"/>
<path d="M29.7147 33.4524C29.0303 33.4524 28.4766 32.898 28.4766 32.2143V30.9762C28.4766 30.2925 29.0303 29.7381 29.7147 29.7381C30.399 29.7381 30.9528 30.2925 30.9528 30.9762V32.2143C30.9528 32.898 30.399 33.4524 29.7147 33.4524Z" fill="#C8C5C9"/>
<path d="M42.0934 21.0714H40.8553C40.171 21.0714 39.6172 20.517 39.6172 19.8333C39.6172 19.1496 40.171 18.5952 40.8553 18.5952H42.0934C42.7777 18.5952 43.3315 19.1496 43.3315 19.8333C43.3315 20.517 42.7779 21.0714 42.0934 21.0714Z" fill="#C8C5C9"/>
<path d="M18.5699 21.0714H17.3318C16.6475 21.0714 16.0938 20.517 16.0938 19.8333C16.0938 19.1496 16.6475 18.5952 17.3318 18.5952H18.5699C19.2543 18.5952 19.808 19.1496 19.808 19.8333C19.808 20.517 19.2543 21.0714 18.5699 21.0714Z" fill="#C8C5C9"/>
<path d="M13.6191 37.1666H1.2381C0.553769 37.1666 0 36.6122 0 35.9285C0 35.2448 0.553769 34.6904 1.2381 34.6904H13.6191C14.3034 34.6904 14.8572 35.2448 14.8572 35.9285C14.8572 36.6122 14.3034 37.1666 13.6191 37.1666Z" fill="#FFC008"/>
<path d="M12.3815 42.119H4.95294C4.26861 42.119 3.71484 41.5646 3.71484 40.8809C3.71484 40.1972 4.26861 39.6428 4.95294 39.6428H12.3815C13.0659 39.6428 13.6196 40.1972 13.6196 40.8809C13.6196 41.5646 13.0659 42.119 12.3815 42.119Z" fill="#FFC008"/>
<path d="M11.144 47.0714H8.66778C7.98346 47.0714 7.42969 46.517 7.42969 45.8333C7.42969 45.1496 7.98346 44.5952 8.66778 44.5952H11.144C11.8283 44.5952 12.3821 45.1496 12.3821 45.8333C12.3821 46.517 11.8283 47.0714 11.144 47.0714Z" fill="#FFC008"/>
<path d="M25.9999 24.7857C25.6831 24.7857 25.3663 24.6647 25.1245 24.423C24.6408 23.9393 24.6408 23.1559 25.1245 22.6722L36.8863 10.9104C37.37 10.4267 38.1534 10.4267 38.6371 10.9104C39.1208 11.3941 39.1208 12.1774 38.6371 12.6611L26.8752 24.423C26.6333 24.6647 26.3166 24.7857 25.9999 24.7857Z" fill="#D00000"/>
<path d="M29.7145 22.3096C31.082 22.3096 32.1907 21.2009 32.1907 19.8334C32.1907 18.4658 31.082 17.3572 29.7145 17.3572C28.3469 17.3572 27.2383 18.4658 27.2383 19.8334C27.2383 21.2009 28.3469 22.3096 29.7145 22.3096Z" fill="#5D5360"/>
</g>
<defs>
<clipPath id="clip0_3333_2970">
<rect width="78" height="55" fill="white" transform="translate(0 0.5)"/>
</clipPath>
</defs>
</svg>
