<svg width="63" height="64" viewBox="0 0 63 64" fill="none" xmlns="http://www.w3.org/2000/svg">
<g filter="url(#filter0_d_3331_1912)">
<path d="M40.1256 22.6319C40.1256 23.6219 39.8931 24.3456 39.4994 24.8631C39.4919 24.8744 39.4881 24.8819 39.4806 24.8894C38.6631 25.9469 37.1856 26.1419 35.7231 25.9994C34.4669 25.8794 33.2219 25.5119 32.4119 25.2306C32.5469 24.9231 32.6256 24.5406 32.6256 24.1319C32.6256 23.3256 32.3219 22.6394 31.8906 22.3731C33.5744 21.3231 40.1219 17.4606 40.1256 22.6319Z" fill="#D00000"/>
<path d="M32.586 24.5943C32.5508 24.8264 32.4927 25.0435 32.4102 25.2306C33.2202 25.5119 34.4652 25.8794 35.7214 25.9994C37.1839 26.1419 38.6614 25.9469 39.4789 24.8894C39.4864 24.8819 39.4902 24.8744 39.4977 24.8631C39.8914 24.3456 40.1239 23.6219 40.1239 22.6319C40.1235 22.291 40.0935 21.9918 40.0395 21.7263C38.7942 24.2545 35.3569 24.7341 32.586 24.5943Z" fill="#BC0404"/>
<path d="M22.875 22.6319C22.8863 17.4719 29.4338 21.3306 31.11 22.3731C30.6788 22.6394 30.375 23.3256 30.375 24.1319C30.375 24.5406 30.4538 24.9231 30.5888 25.2306C29.7788 25.5119 28.5338 25.8794 27.2775 25.9994C25.8113 26.1419 24.33 25.9469 23.5125 24.8819C23.115 24.3606 22.8713 23.6331 22.875 22.6319Z" fill="#D00000"/>
<path d="M23.2962 20.8622C23.0318 21.2717 22.8769 21.8459 22.875 22.6319C22.8713 23.6331 23.115 24.3606 23.5125 24.8819C24.33 25.9469 25.8113 26.1419 27.2775 25.9994C28.5338 25.8794 29.7788 25.5119 30.5888 25.2306C30.5025 25.0345 30.4429 24.8057 30.4084 24.5612C27.5385 24.4544 24.7384 23.383 23.2962 20.8622Z" fill="#BC0404"/>
<path d="M31.5 26.0069C32.1213 26.0069 32.625 25.1674 32.625 24.1319C32.625 23.0963 32.1213 22.2569 31.5 22.2569C30.8787 22.2569 30.375 23.0963 30.375 24.1319C30.375 25.1674 30.8787 26.0069 31.5 26.0069Z" fill="#DC2F02"/>
<path d="M32.625 24.1319C32.625 25.1669 32.1225 26.0069 31.5 26.0069C30.8775 26.0069 30.375 25.1669 30.375 24.1319C30.375 23.9369 30.3937 23.7494 30.4275 23.5731C30.57 24.3306 30.9975 24.8819 31.5 24.8819C32.0025 24.8819 32.43 24.3306 32.5725 23.5731C32.6063 23.7494 32.625 23.9369 32.625 24.1319Z" fill="#D00000"/>
<path d="M33.75 30.5069H35.1L35.1262 30.5031C35.2612 31.2569 35.3138 32.1269 35.25 33.1319L36.375 32.0069L37.875 33.5069C37.875 33.5069 37.9312 32.1719 37.6312 30.5069H37.635H42V42.5069C42 42.9194 41.6625 43.2569 41.25 43.2569H33.375V30.5069H33.75Z" fill="#FFC008"/>
<path d="M29.625 30.5069V43.2569H21.75C21.3375 43.2569 21 42.9194 21 42.5069V30.5069H25.365H25.3687C25.0687 32.1719 25.125 33.5069 25.125 33.5069L26.625 32.0069L27.75 33.1319C27.6863 32.1269 27.7387 31.2569 27.8737 30.5031L27.9 30.5069H29.25H29.625Z" fill="#FFC008"/>
<path d="M29.625 30.5069H33.375V43.2569H29.625V30.5069Z" fill="#D00000"/>
<path d="M25.3687 30.5069C25.2975 30.9044 25.245 31.2869 25.2112 31.6319H21V30.5069H25.3687Z" fill="#FF9700"/>
<path d="M29.6248 30.5069V31.6319H27.7461C27.7648 31.2269 27.8098 30.8519 27.8736 30.5031L27.8998 30.5069H29.6248Z" fill="#FF9700"/>
<path d="M29.625 30.5069H33.375V31.6319H29.625V30.5069Z" fill="#890711"/>
<path d="M35.2537 31.6319H33.375V30.5069H35.1L35.1262 30.5031C35.19 30.8519 35.235 31.2269 35.2537 31.6319Z" fill="#FF9700"/>
<path d="M43.1252 25.2644V30.1319C43.1252 30.3381 42.9564 30.5069 42.7502 30.5069H42.0002H37.6352H37.6314C37.3727 29.0256 36.8289 27.2894 35.7227 25.9994C37.1852 26.1419 38.6627 25.9469 39.4802 24.8894H42.7502C42.9564 24.8894 43.1252 25.0581 43.1252 25.2644Z" fill="#FBDE08"/>
<path d="M35.1262 30.5031L35.1 30.5069H33.75V27.3231C34.3238 28.0244 34.875 29.0444 35.1262 30.5031Z" fill="#FBDE08"/>
<path d="M43.1241 25.2644V30.1319C43.1241 30.3381 42.9553 30.5069 42.7491 30.5069H37.6303C37.5853 30.2631 37.5366 30.0119 37.4766 29.7569H41.2288C41.8614 29.7569 42.3741 29.2442 42.3741 28.6116V24.8894H42.7491C42.9553 24.8894 43.1241 25.0581 43.1241 25.2644Z" fill="#F9AF0B"/>
<path d="M35.1262 30.5031L35.1 30.5069H33.75V29.7569H34.965C35.0288 29.9931 35.0812 30.2406 35.1262 30.5031Z" fill="#F9AF0B"/>
<path d="M29.2513 27.3231V30.5069H27.9012L27.875 30.5031C28.1263 29.0444 28.6775 28.0244 29.2513 27.3231Z" fill="#FBDE08"/>
<path d="M23.5125 24.8819C24.33 25.9469 25.8112 26.1419 27.2775 25.9994C26.1712 27.2894 25.6275 29.0256 25.3687 30.5069H25.365H21H20.25C20.0437 30.5069 19.875 30.3381 19.875 30.1319V25.2569C19.875 25.0506 20.0437 24.8819 20.25 24.8819H23.5125Z" fill="#FBDE08"/>
<path d="M29.625 41.7569V43.2569H21.75C21.3375 43.2569 21 42.9194 21 42.5069V41.7569H29.625Z" fill="#FF9700"/>
<path d="M29.625 41.7569H33.375V43.2569H29.625V41.7569Z" fill="#9D0208"/>
<path d="M31.125 25.9019C31.2413 25.9694 31.3688 26.0069 31.5 26.0069C31.6312 26.0069 31.755 25.9694 31.8713 25.9019C31.8713 25.9019 32.8425 26.2206 33.75 27.3231V30.5069H33.375H29.625H29.25V27.3231C30.1538 26.2206 31.125 25.9019 31.125 25.9019Z" fill="#BC0404"/>
<path d="M29.2513 29.7569V30.5069H27.9012L27.875 30.5031C27.92 30.2406 27.9725 29.9931 28.0363 29.7569H29.2513Z" fill="#F9AF0B"/>
<path d="M25.5225 29.7569C25.4625 30.0119 25.4137 30.2631 25.3687 30.5069H20.25C20.0437 30.5069 19.875 30.3381 19.875 30.1319V29.7569H25.5225Z" fill="#F9AF0B"/>
<path d="M29.25 29.7569H33.75V30.5069H29.25V29.7569Z" fill="#9D0208"/>
<path d="M33.75 27.3231V28.4481C32.8425 27.3456 31.8713 27.0269 31.8713 27.0269C31.755 27.0944 31.6312 27.1319 31.5 27.1319C31.3688 27.1319 31.2413 27.0944 31.125 27.0269C31.125 27.0269 30.1538 27.3456 29.25 28.4481V27.3231C30.1538 26.2206 31.125 25.9019 31.125 25.9019C31.2413 25.9694 31.3688 26.0069 31.5 26.0069C31.6312 26.0069 31.755 25.9694 31.8713 25.9019C31.8713 25.9019 32.8425 26.2206 33.75 27.3231Z" fill="#890711"/>
<path d="M37.6311 30.5069C37.9311 32.1719 37.8748 33.5069 37.8748 33.5069L36.3748 32.0069L35.2498 33.1319C35.3136 32.1269 35.2611 31.2569 35.1261 30.5031C34.8748 29.0444 34.3236 28.0244 33.7498 27.3231C32.8423 26.2206 31.8711 25.9019 31.8711 25.9019C32.0923 25.7744 32.2798 25.5381 32.4111 25.2306C33.2211 25.5119 34.4661 25.8794 35.7223 25.9994C36.8286 27.2894 37.3723 29.0256 37.6311 30.5069Z" fill="#D00000"/>
<path d="M36.0208 33.4352C36.0317 33.0625 36.0257 32.7096 36.0039 32.3781L36.3752 32.0069L37.1252 32.7569L36.3189 33.5631C36.2075 33.6745 36.0163 33.5927 36.0208 33.4352Z" fill="#FF9700"/>
<path d="M37.6312 30.5069C37.7025 30.9044 37.755 31.2869 37.7888 31.6319H37.7906C37.9073 32.734 37.875 33.5069 37.875 33.5069L38.2556 33.8875C38.3936 34.0255 38.6303 33.9269 38.6265 33.7315C38.6171 33.2586 38.5781 32.5052 38.4435 31.6319H38.625C39.6604 31.6319 40.5 32.4715 40.5 33.5069V41.0069C40.5 41.4212 40.1644 41.7569 39.75 41.7569H33.375V43.2569H41.25C41.6625 43.2569 42 42.9194 42 42.5069V30.5069H37.6312Z" fill="#FF9700"/>
<path d="M38.2277 30.5069H37.6314C37.3727 29.0256 36.8289 27.2894 35.7227 25.9994C35.9927 26.0256 36.2589 26.0406 36.5252 26.0406C37.2789 27.3681 37.9839 29.4606 38.2277 30.5069Z" fill="#F9AF0B"/>
<path d="M36.4948 27.1206C35.2161 27.0231 33.9523 26.7794 32.9623 26.5431C32.3548 26.0594 31.8711 25.9019 31.8711 25.9019C32.0923 25.7744 32.2798 25.5381 32.4111 25.2306C33.2211 25.5119 34.4661 25.8794 35.7223 25.9994C36.0186 26.3444 36.2773 26.7231 36.4948 27.1206Z" fill="#9D0208"/>
<path d="M30.589 25.2306C30.7203 25.5344 30.9078 25.7706 31.1253 25.9019C31.1253 25.9019 30.154 26.2206 29.2503 27.3231C28.6765 28.0244 28.1253 29.0444 27.874 30.5031C27.739 31.2569 27.6865 32.1269 27.7503 33.1319L26.6253 32.0069L25.1253 33.5069C25.1253 33.5069 25.069 32.1719 25.369 30.5069C25.6278 29.0256 26.1715 27.2894 27.2778 25.9994C28.534 25.8794 29.779 25.5119 30.589 25.2306Z" fill="#D00000"/>
<path d="M28.2486 31.2531C28.1323 31.9019 28.0772 32.6365 28.105 33.469C28.1098 33.6149 27.937 33.6936 27.8338 33.5909L26.9998 32.7569L25.7687 33.988C25.6678 34.0889 25.495 34.0191 25.4961 33.8762C25.4976 33.682 25.504 33.421 25.5223 33.1094L26.6248 32.0069L27.7498 33.1319C27.6861 32.1269 27.7386 31.2569 27.8736 30.5031L27.8998 30.5069H28.4098C28.3461 30.7431 28.2936 30.9906 28.2486 31.2531Z" fill="#FF7F00"/>
<path d="M29.2513 27.3231V28.5869C28.925 29.0931 28.6213 29.7269 28.4113 30.5069H27.9012L27.875 30.5031C28.1263 29.0444 28.6775 28.0244 29.2513 27.3231Z" fill="#F9AF0B"/>
<path d="M31.1239 25.9019C31.1239 25.9019 30.6402 26.0594 30.0364 26.5431C29.0464 26.7794 27.7827 27.0231 26.5039 27.1206C26.7214 26.7231 26.9802 26.3444 27.2764 25.9994C28.5327 25.8794 29.7777 25.5119 30.5877 25.2306C30.7189 25.5344 30.9064 25.7706 31.1239 25.9019Z" fill="#9D0208"/>
<path d="M31.1987 23.2068C30.9572 23.2068 30.8834 23.7569 31.1252 23.7569C31.3664 23.7569 31.4402 23.2068 31.1987 23.2068Z" fill="#F75B3C"/>
<path d="M21.1687 25.4181C20.8721 25.3716 20.6407 25.6049 20.5222 25.9019C20.355 26.3211 20.3122 26.8716 20.7315 26.9373C21.0427 26.986 20.9613 26.5611 21.0738 26.2435C21.2197 25.8306 21.5733 25.4811 21.1687 25.4181Z" fill="#F7EDC6"/>
<path d="M24.8403 20.7651C24.1166 20.7651 23.2754 21.8819 24.0007 21.8819C24.7244 21.8819 25.5656 20.7651 24.8403 20.7651Z" fill="#F75B3C"/>
<path d="M20.728 27.0831C20.4869 27.0831 20.4861 27.4581 20.728 27.4581C20.9695 27.4581 20.9699 27.0831 20.728 27.0831Z" fill="#F7EDC6"/>
</g>
<defs>
<filter id="filter0_d_3331_1912" x="0.0750008" y="0.200001" width="62.85" height="62.8569" filterUnits="userSpaceOnUse" color-interpolation-filters="sRGB">
<feFlood flood-opacity="0" result="BackgroundImageFix"/>
<feColorMatrix in="SourceAlpha" type="matrix" values="0 0 0 0 0 0 0 0 0 0 0 0 0 0 0 0 0 0 127 0" result="hardAlpha"/>
<feOffset/>
<feGaussianBlur stdDeviation="9.9"/>
<feComposite in2="hardAlpha" operator="out"/>
<feColorMatrix type="matrix" values="0 0 0 0 1 0 0 0 0 0.752941 0 0 0 0 0.0313726 0 0 0 1 0"/>
<feBlend mode="normal" in2="BackgroundImageFix" result="effect1_dropShadow_3331_1912"/>
<feBlend mode="normal" in="SourceGraphic" in2="effect1_dropShadow_3331_1912" result="shape"/>
</filter>
</defs>
</svg>
