<svg width="112" height="120" viewBox="0 0 112 120" fill="none" xmlns="http://www.w3.org/2000/svg">
<path d="M55.81 73.5569V119.4L5.73047 90.4917V44.6486L55.81 73.5569Z" fill="#D02555"/>
<path d="M105.888 44.6486V90.4917L55.8086 119.4V73.5569L105.888 44.6486Z" fill="#A81E45"/>
<path d="M55.81 73.5569V86.0657L5.73047 57.1461V44.6486L55.81 73.5569Z" fill="#C21B4A"/>
<path d="M105.888 45.15V57.6475L81.8295 71.5386L68.5513 79.2089L55.8086 86.5671V74.0582L105.888 45.15Z" fill="#8F1437"/>
<path d="M55.809 82.4358L0.117188 50.2832L0.11798 32.7528L55.8096 64.9054L55.809 82.4358Z" fill="#DB275A"/>
<path d="M55.8091 82.4358L111.501 50.2832L111.5 32.7528L55.8086 64.9054L55.8091 82.4358Z" fill="#A81E45"/>
<path d="M111.501 32.7528L55.8088 64.9054L0.117188 32.7528L55.8088 0.599976L111.501 32.7528Z" fill="#E6295E"/>
<path d="M29.087 16.03C28.3652 15.5009 20.5479 20.2743 16.1544 22.795C15.5203 23.1585 15.4453 23.9085 15.4453 23.9085L15.8088 23.7002L71.4962 55.8528L84.7743 48.1825L29.087 16.03Z" fill="#FFD233"/>
<path d="M71.4961 55.8528V73.3795L84.774 65.5305V48.1828L71.4961 55.8528Z" fill="#D19A19"/>
<path d="M81.8289 71.0373V104.379L68.5508 112.228V78.7075L81.8289 71.0373Z" fill="#D19A19"/>
<path d="M81.8289 67.2692V71.0373L68.5508 78.7076V74.9395L81.8289 67.2692Z" fill="#C78E08"/>
<path d="M69.2538 8.35998C69.9756 7.83092 77.7929 12.6043 82.1863 15.125C82.8205 15.4888 82.8952 16.2385 82.8952 16.2385L82.5317 16.0302L26.8446 48.1828L13.5664 40.5125L69.2538 8.35998Z" fill="#FFD233"/>
<path d="M26.8443 48.1828V65.7093L13.5664 57.8603V40.5126L26.8443 48.1828Z" fill="#F5C92C"/>
<path d="M16.5078 63.3671V96.7095L29.7857 104.558V71.0373L16.5078 63.3671Z" fill="#F5C92C"/>
<path d="M16.5078 59.5989V63.367L29.7857 71.0373V67.2692L16.5078 59.5989Z" fill="#E6BD29"/>
<path d="M33.3438 33.8243V51.0926L43.3071 45.3403L52.5022 50.6491L51.7134 33.8243H33.3438Z" fill="#FFEB33"/>
<path d="M37.0529 10.5763C33.5745 7.82276 22.4038 -0.97346 13.6968 2.90602C11.6342 3.82025 9.70569 5.44808 8.05569 8.04557C-0.55098 21.5798 13.106 32.3051 33.3408 33.8212H42.9174V20.8886C42.9174 20.8886 41.3564 13.9655 37.0529 10.5763ZM34.9238 19.406C36.7409 20.9779 37.8782 23.3193 38.7478 25.5934C30.0184 25.1586 10.5864 22.7504 10.8427 9.76236V9.70666C16.6845 7.58859 28.0785 13.5085 34.9238 19.406Z" fill="#FFEB33"/>
<path d="M41.3573 31.9149C41.3573 31.9149 6.76326 32.751 7.11993 15.9946C7.19807 12.4494 8.6139 10.4984 10.8436 9.70667V9.76237C10.5873 22.7504 30.019 25.1586 38.7487 25.5934C39.7519 28.2247 40.3984 30.7665 41.3573 31.9149Z" fill="#FFC533"/>
<path d="M42.918 20.8886V33.8212H52.4946C72.7294 32.3051 86.3864 21.5798 77.7797 8.04557C76.1297 5.44808 74.2009 3.82025 72.1386 2.90602C63.4316 -0.97346 52.2607 7.82276 48.7822 10.5763C44.4785 13.9655 42.918 20.8886 42.918 20.8886ZM74.9924 9.70666V9.76236C75.249 22.7504 55.817 25.1586 47.0873 25.5934C47.9569 23.319 49.094 20.9779 50.9114 19.406C57.7566 13.5085 69.1503 7.58859 74.9924 9.70666Z" fill="#FFEB33"/>
<path d="M44.4805 31.9149C44.4805 31.9149 79.0745 32.751 78.7178 15.9946C78.6397 12.4494 77.2239 10.4984 74.9941 9.70667V9.76237C75.2507 22.7504 55.8187 25.1586 47.0891 25.5934C46.0859 28.2247 45.4393 30.7665 44.4805 31.9149Z" fill="#FFC533"/>
<path d="M25.2942 47.5516C23.6096 46.3815 21.897 45.1457 20.0879 44.1755C18.6572 43.4084 16.7818 42.9089 15.8153 41.516C15.7205 41.3795 15.5051 41.4996 15.5896 41.6477C16.3499 42.978 17.7961 43.5142 19.1047 44.1666C21.213 45.2178 23.0349 46.7662 25.1799 47.7472C25.3119 47.8074 25.4151 47.6355 25.2942 47.5516Z" fill="#FEFFEB"/>
<path d="M16.1027 7.75726C14.0918 7.11072 7.20957 7.98271 7.12113 10.8975C7.11901 10.9672 7.22224 11.0203 7.26976 10.9591C9.46333 8.12923 12.9521 8.6414 16.1027 8.14349C16.3115 8.11076 16.274 7.81244 16.1027 7.75726Z" fill="#FEFFEB"/>
<path d="M40.6666 31.9251C38.9506 31.984 37.3827 32.149 35.6762 31.7393C35.5017 31.6973 35.4307 31.9552 35.6023 32.008C37.0411 32.4508 39.3569 33.0081 40.7281 32.1522C40.8268 32.0907 40.7917 31.9209 40.6666 31.9251Z" fill="#FEFFEB"/>
<path d="M76.9871 21.9692C76.298 24.7261 72.7702 26.6359 70.2683 27.3886C70.0716 27.4477 70.1558 27.7236 70.3517 27.6909C72.9798 27.2513 77.0758 24.9991 77.1581 21.9922C77.1608 21.8945 77.0108 21.8736 76.9871 21.9692Z" fill="#FEFFEB"/>
<path d="M58.4715 11.5879C53.7517 12.5465 48.2154 17.0458 47.0031 21.7981C46.9775 21.8979 47.1182 21.9319 47.1544 21.8398C49.0742 16.931 53.9027 13.848 58.5689 11.9406C58.7833 11.8529 58.7075 11.5401 58.4715 11.5879Z" fill="#FEFFEB"/>
</svg>
