<svg width="59" height="81" viewBox="0 0 59 81" fill="none" xmlns="http://www.w3.org/2000/svg">
<g clip-path="url(#clip0_3333_2631)">
<path d="M30.2733 50.224H33.5213L33.5845 50.215L34.4837 50.215L36.4887 50.224H38.4936H39.6114H39.6204H50.1223V79.0953C50.1223 80.0877 49.3103 80.8997 48.3179 80.8997H29.3711V50.224H30.2733Z" fill="#FFC008"/>
<path d="M20.3477 50.224H29.3699V80.8997H20.3477V50.224Z" fill="#D00000"/>
<path d="M20.3477 50.224H29.3699V52.9307H20.3477V50.224Z" fill="#890711"/>
<path d="M20.3477 77.2909H29.3699V80.8998H20.3477V77.2909Z" fill="#9D0208"/>
<path d="M19.4453 48.4196H30.272V50.224H19.4453V48.4196Z" fill="#9D0208"/>
<path d="M42.9045 52.9307L29.3711 52.9307V50.224H33.5213L42.5978 50.215C42.7511 51.054 42.8594 51.9563 42.9045 52.9307Z" fill="#FF9700"/>
<path d="M39.6114 50.224C39.7828 51.1804 39.9091 52.1006 39.9903 52.9307H39.9948H40.0976H40.4986H40.8996H41.5656H42.0023C44.4933 52.9307 46.5134 54.9508 46.5134 57.4418V75.4864C46.5134 76.4833 45.7059 77.2908 44.709 77.2908H29.3711V80.8997H48.3179C49.3103 80.8997 50.1223 80.0877 50.1223 79.0953V50.224H39.6114Z" fill="#FF9700"/>
<path d="M20.3489 50.224V80.8997H1.40211C0.409661 80.8997 -0.402344 80.0877 -0.402344 79.0953V50.224H10.0996H10.1086L11.2264 50.215L12.8303 50.215L14.8353 50.215L16.1355 50.215L16.1986 50.224H19.4467H20.3489Z" fill="#FFC008"/>
<path d="M10.1086 50.224C9.93718 51.1804 9.81087 52.1006 9.72967 52.9307H-0.402344V50.224H10.1086Z" fill="#FF9700"/>
<path d="M20.3467 50.224V52.9307L9.62109 52.9307C9.66621 51.9563 9.77447 51.054 9.92785 50.215L16.1965 50.224H20.3467Z" fill="#FF9700"/>
<path d="M20.3489 77.2908V80.8997H1.40211C0.409661 80.8997 -0.402344 80.0877 -0.402344 79.0953V77.2908H20.3489Z" fill="#FF9700"/>
<path d="M56.8658 31.0226C55.2647 32.7861 53.6801 33.6993 52.1418 33.9844C52.1102 33.9923 52.0914 33.9996 52.0659 34.0008C48.8995 34.5624 45.9522 32.5203 43.5775 29.9013C41.5338 27.6558 39.9104 24.9877 38.9224 23.1768C39.6602 22.8473 40.4191 22.2933 41.0801 21.5652C42.384 20.1291 42.9528 18.4154 42.6152 17.2437C47.3126 18.0964 65.2223 21.805 56.8658 31.0226Z" fill="#D00000"/>
<path d="M40.2649 22.3269C39.8267 22.6834 39.372 22.9762 38.9224 23.1761C39.9104 24.9871 41.5338 27.6552 43.5775 29.9006C45.9522 32.5196 48.8995 34.5618 52.0659 34.0001C52.0914 33.9989 52.1102 33.9916 52.1418 33.9837C53.6801 33.6987 55.2647 32.7855 56.8658 31.022C57.4164 30.4142 57.8469 29.8326 58.1801 29.2723C51.8729 31.7618 44.9744 27.0573 40.2649 22.3269Z" fill="#BC0404"/>
<path d="M26.1377 3.12411C34.5028 -6.04925 39.9253 11.4133 41.2253 15.9812C40.0265 15.7581 38.3756 16.4893 37.0717 17.9254C36.4106 18.6535 35.9323 19.4623 35.6755 20.2283C33.7778 19.4194 30.9657 18.0605 28.5339 16.2426C25.6916 14.1251 23.3684 11.3822 23.6345 8.16305C23.7694 6.59169 24.5118 4.90158 26.1377 3.12411Z" fill="#D00000"/>
<path d="M29.7502 0.652995C28.617 0.954881 27.4127 1.7271 26.1382 3.12418C24.5122 4.90165 23.7699 6.59176 23.6349 8.16312C23.3688 11.3823 25.692 14.1252 28.5343 16.2427C30.9661 18.0606 33.7782 19.4194 35.6759 20.2284C35.8394 19.7396 36.1032 19.2357 36.4371 18.7443C31.4978 13.9127 28.2426 7.4757 29.7502 0.652995Z" fill="#BC0404"/>
<path d="M36.0448 23.0848C37.1515 24.0896 39.4064 23.4088 41.0811 21.5642C42.7558 19.7196 43.2162 17.4097 42.1094 16.4049C41.0027 15.4 38.7478 16.0808 37.0731 17.9254C35.3984 19.77 34.938 22.0799 36.0448 23.0848Z" fill="#DC2F02"/>
<path d="M41.0809 21.5642C39.407 23.4079 37.1534 24.0915 36.0446 23.0848C34.9357 22.078 35.3991 19.7691 37.0729 17.9254C37.3883 17.5781 37.7249 17.2744 38.0701 17.015C37.0989 18.5948 36.9689 20.2681 37.864 21.0808C38.7591 21.8935 40.4121 21.6029 41.891 20.484C41.6661 20.8526 41.3962 21.2169 41.0809 21.5642Z" fill="#D00000"/>
<path d="M57.9547 40.5629L50.0827 49.2334C49.7492 49.6008 49.1756 49.6285 48.8083 49.2949L47.4723 48.082L39.6969 41.0227L39.6902 41.0166C41.6248 37.9596 43.4642 33.9874 43.5799 29.9005C45.9546 32.5195 48.9018 34.5617 52.0683 34L57.8931 39.2884C58.2605 39.622 58.2882 40.1955 57.9547 40.5629Z" fill="#FBDE08"/>
<path d="M35.2306 36.9585L35.1777 36.9228L32.773 34.7395L37.9219 29.0682C37.8098 31.2453 37.1422 33.9537 35.2306 36.9585Z" fill="#FBDE08"/>
<path d="M57.9535 40.5632L50.0815 49.2338C49.748 49.6012 49.1745 49.6288 48.8071 49.2953L39.689 41.017C40.003 40.51 40.3225 39.9836 40.628 39.4324L47.312 45.5007C48.4389 46.5238 50.181 46.4397 51.2042 45.3128L57.224 38.6823L57.8919 39.2888C58.2593 39.6223 58.287 40.1958 57.9535 40.5632Z" fill="#F9AF0B"/>
<path d="M35.2329 36.9585L35.1801 36.9228L32.7753 34.7395L33.9883 33.4035L36.1526 35.3685C35.8841 35.8924 35.5773 36.4182 35.2329 36.9585Z" fill="#F9AF0B"/>
<path d="M29.9086 21.7905L24.7596 27.4617L22.3549 25.2785L22.3142 25.2293C25.1209 23.0372 27.7524 22.1117 29.9086 21.7905Z" fill="#FBDE08"/>
<path d="M23.6358 8.16301C23.3696 11.3822 25.6928 14.1251 28.5351 16.2426C24.4783 16.7514 20.7018 18.9648 17.8453 21.1849L17.8386 21.1788L10.0632 14.1195L8.72722 12.9066C8.35983 12.573 8.33214 11.9995 8.6657 11.6321L16.5498 2.94826C16.8833 2.58087 17.4568 2.55318 17.8242 2.88674L23.6358 8.16301Z" fill="#FBDE08"/>
<path d="M35.547 22.2913C35.6449 22.5995 35.8114 22.8725 36.0452 23.0848C36.279 23.297 36.56 23.4304 36.8763 23.4981C36.8763 23.4981 38.0909 25.6367 37.9244 29.0682L32.7755 34.7395L32.1075 34.133L25.4276 28.0683L24.7596 27.4618L29.9085 21.7906C33.3014 21.2883 35.547 22.2913 35.547 22.2913Z" fill="#BC0404"/>
<path d="M25.9711 26.1258L24.7581 27.4617L22.3534 25.2785L22.3127 25.2293C22.8173 24.8345 23.3111 24.4785 23.8068 24.1608L25.9711 26.1258Z" fill="#F9AF0B"/>
<path d="M19.3334 20.0976C18.8141 20.4548 18.3209 20.8235 17.8466 21.1849L8.72849 12.9066C8.3611 12.5731 8.33341 11.9996 8.66697 11.6322L9.27344 10.9642L19.3334 20.0976Z" fill="#F9AF0B"/>
<path d="M37.9244 29.0682L36.105 31.0722C36.2715 27.6406 35.0569 25.5021 35.0569 25.5021C34.7406 25.4343 34.4596 25.301 34.2258 25.0887C33.992 24.8765 33.8255 24.6035 33.7276 24.2952C33.7276 24.2952 31.482 23.2923 28.0891 23.7946L29.9085 21.7906C33.3014 21.2883 35.547 22.2913 35.547 22.2913C35.6449 22.5995 35.8114 22.8725 36.0452 23.0848C36.279 23.297 36.56 23.4304 36.8763 23.4981C36.8763 23.4981 38.0909 25.6367 37.9244 29.0682Z" fill="#890711"/>
<path d="M39.6883 41.0162C37.5299 44.4672 35.2707 46.7543 35.2707 46.7543L35.0246 41.6565L31.2013 41.841C32.9401 40.1539 34.2536 38.5193 35.2322 36.9583C37.1438 33.9535 37.8114 31.245 37.9235 29.068C38.09 25.6364 36.8754 23.4979 36.8754 23.4979C37.4757 23.6286 38.1917 23.511 38.9228 23.1755C39.9109 24.9865 41.5342 27.6546 43.5779 29.9C43.4623 33.987 41.6229 37.9591 39.6883 41.0162Z" fill="#D00000"/>
<path d="M40.7506 41.981L39.6885 41.0167C41.6231 37.9597 43.4624 33.9875 43.5781 29.9005C44.0166 30.3839 44.4666 30.8412 44.9409 31.2718C44.1367 34.8555 42.0084 39.7231 40.7506 41.981Z" fill="#F9AF0B"/>
<path d="M43.1407 33.1466C41.0205 30.9049 39.1636 28.4269 37.7822 26.405C37.4824 24.5608 36.8754 23.4979 36.8754 23.4979C37.4757 23.6286 38.1917 23.511 38.9228 23.1755C39.9109 24.9865 41.5342 27.6546 43.5779 29.9C43.5477 30.9937 43.3961 32.0868 43.1407 33.1466Z" fill="#9D0208"/>
<path d="M35.6776 20.2287C35.4201 20.9821 35.3721 21.7061 35.5472 22.2917C35.5472 22.2917 33.3016 21.2887 29.9088 21.791C27.7526 22.1123 25.1211 23.0377 22.3144 25.2299C20.8549 26.3542 19.3544 27.819 17.8426 29.7123L17.658 25.889L12.5602 26.1351C12.5602 26.1351 14.619 23.666 17.8461 21.1853C20.7026 18.9652 24.4791 16.7518 28.536 16.243C30.9678 18.0609 33.7799 19.4198 35.6776 20.2287Z" fill="#D00000"/>
<path d="M29.9086 21.7905L27.8648 24.0416C26.4649 24.4158 24.8989 25.0534 23.2633 26.1032L22.3549 25.2785L22.3142 25.2293C25.1209 23.0372 27.7524 22.1117 29.9086 21.7905Z" fill="#F9AF0B"/>
<path d="M35.5464 22.2916C35.5464 22.2916 34.43 21.7898 32.5722 21.6751C30.4266 20.4949 27.7813 18.8853 25.3457 16.9909C26.376 16.6346 27.4495 16.3784 28.5351 16.2429C30.967 18.0608 33.779 19.4197 35.6768 20.2286C35.4193 20.982 35.3712 21.706 35.5464 22.2916Z" fill="#9D0208"/>
<path d="M40.0364 17.6096C39.6062 17.219 38.5849 18.0795 39.0158 18.4707C39.4453 18.8606 40.4666 18.0002 40.0364 17.6096Z" fill="#F75B3C"/>
<path d="M18.5899 5.32566C18.1368 4.76311 17.3474 4.80441 16.656 5.14181C15.68 5.61814 14.7136 6.52962 15.3543 7.32454C15.8298 7.91475 16.372 7.02632 17.0861 6.64247C18.0137 6.14293 19.2088 6.09226 18.5899 5.32566Z" fill="#F7EDC6"/>
<path d="M32.655 2.97513C31.3657 1.80465 28.0614 2.43361 29.3533 3.60652C30.6425 4.77701 33.9468 4.14804 32.655 2.97513Z" fill="#F75B3C"/>
<path d="M15.1156 7.58095C14.6861 7.19099 14.0783 7.85777 14.5091 8.24894C14.9393 8.63951 15.5465 7.97212 15.1156 7.58095Z" fill="#F7EDC6"/>
</g>
<defs>
<clipPath id="clip0_3333_2631">
<rect width="58.5445" height="81" fill="white"/>
</clipPath>
</defs>
</svg>
