<svg width="390" height="338" viewBox="0 0 390 338" fill="none" xmlns="http://www.w3.org/2000/svg">
<path fill-rule="evenodd" clip-rule="evenodd" d="M260 294C260 317.247 260 328.871 260.919 330.975C263.23 336.27 264.632 337.243 270.4 337.558C272.693 337.683 279.135 335.28 292.019 330.474C412.34 285.589 499 159.513 499 11C499 -175.12 362.895 -326 195 -326C27.1054 -326 -109 -175.12 -109 11C-109 159.513 -22.3398 285.589 97.9814 330.474C110.865 335.28 117.307 337.683 119.6 337.558C125.368 337.243 126.77 336.27 129.081 330.975C130 328.871 130 317.247 130 294C130 258.102 159.102 229 195 229C230.898 229 260 258.102 260 294Z" fill="url(#paint0_linear_3331_1959)"/>
<defs>
<linearGradient id="paint0_linear_3331_1959" x1="195" y1="45.3651" x2="195" y2="348" gradientUnits="userSpaceOnUse">
<stop stop-color="#E62B60"/>
<stop offset="1" stop-color="#E6577F"/>
</linearGradient>
</defs>
</svg>
